<svg id="Layer_1" data-name="Layer 1" xmlns="http://www.w3.org/2000/svg" viewBox="0 0 800 800"><defs><style>.cls-1,.cls-2{fill:#0000cd;}.cls-2{stroke:#606161;stroke-linecap:round;stroke-linejoin:round;stroke-width:0;}</style></defs><title>ICON_AF</title><path class="cls-1" d="M618,233.43C596.75,144.78,507.13,57.31,376.46,65.9c-99.87,6.55-219.8,114-201.64,251,8.1,61.21,32.45,113.55,78.93,153.56,35.45,30.51,49.07,67.18,45.82,112.62-.76,10.68-1.41,21.5-1.51,32.28,0,2.07.12,4.12.14,6.19,1.15,12.41,5.81,31.39,22.28,50.5,11,12.75,25.31,23.88,33.68,34l0,0s10.13,12.52,24.26,16.2a140.35,140.35,0,0,0,42.13,1.37c.19-.05.22-.11.42-.15,14.94-3.11,25.78-16.65,25.78-16.65l0,0c8.37-10.13,22.69-21.26,33.68-34,12.86-14.93,18.42-29.74,20.86-41.48.42-25.9,1.06-51.84-.31-77.66-1.39-26.2,7.91-46.53,26.76-63.74,10.9-9.95,21.74-20.1,31.48-31.15,41.58-47.12,68-100.42,67.2-165.45C623.74,273.33,622.7,252.94,618,233.43ZM328,639.82s67.08,29.95,143.38,0C471.42,639.82,391.82,712.29,328,639.82Zm0-48.43s67.08,30,143.38,0C471.42,591.39,391.82,663.87,328,591.39ZM328,543s67.08,29.95,143.38,0C471.42,543,391.82,615.44,328,543Zm97.81-118.19v104.9a162.14,162.14,0,0,1-28.08,1.57c-7.94-.23-16.09-.32-24.17-.91V424.28a45,45,0,0,0,4.18,3,38,38,0,0,0,16.3,5.81,33.23,33.23,0,0,0,3.85.21c8.13,0,16.41-2.89,24.75-8.33,1-.65,2-1.34,3-2.08l.15.11Zm123.77-1.71h.08l-1.9,2c-3.83,4.38-7.81,8.62-12,12.65l-43.61,45.94-1.13,1.39c-9.81,12-18.07,24.32-31.4,32.87C451.72,523,443,526,434,528.09V423a7.51,7.51,0,0,0,3.56-6.28,7.62,7.62,0,1,0-14.74,2.52,56.17,56.17,0,0,1-10.54,6.27,34.79,34.79,0,0,1-17.63,3,30.58,30.58,0,0,1-7.14-1.72,37.9,37.9,0,0,1-11.12-6.23,7.35,7.35,0,0,0,1.18-3.83,7.62,7.62,0,0,0-15.24,0,7.49,7.49,0,0,0,3.17,6V529.4a85.73,85.73,0,0,1-19.58-4.54,47,47,0,0,1-17.72-12.36H328l-.68-.75-1.06-1.17-69.54-77.1h.05a197.61,197.61,0,0,1-56.67-138.69c0-109.55,88.8-198.35,198.35-198.35s198.35,88.8,198.35,198.35A197.42,197.42,0,0,1,549.62,423.07Z"/><path class="cls-2" d="M547.8,425.07c-3.83,4.38-7.81,8.62-12,12.65"/><path class="cls-1" d="M373.6,424.28v3.19l4.18-.22A45,45,0,0,1,373.6,424.28Z"/><path class="cls-1" d="M422.68,424.94l3.17-.16V423l-.15-.11C424.69,423.6,423.68,424.29,422.68,424.94Z"/><path class="cls-2" d="M327.36,511.74l-1.06-1.17"/><path class="cls-1" d="M491.05,485.05l1.13-1.39-32.53,34.26C473,509.37,481.24,497,491.05,485.05Z"/><path class="cls-1" d="M394.63,428.47a34.79,34.79,0,0,0,17.63-3l-24.77,1.27A30.58,30.58,0,0,0,394.63,428.47Z"/></svg>