<svg id="Layer_1" data-name="Layer 1" xmlns="http://www.w3.org/2000/svg" viewBox="0 0 800 800"><defs><style>.cls-1{fill:#0000cd;}</style></defs><title>ICON_AF</title><path class="cls-1" d="M674.77,558.36H686.1V550a11.33,11.33,0,0,0-11.33-11.33h-66A10.13,10.13,0,0,1,602.3,536L550.8,429.91h.26l-4-8.54a11.33,11.33,0,0,0-10.28-6.57H303.32a11.33,11.33,0,0,0-10.19,6.36l-.35.73-.21-.11-60.65,116a9.77,9.77,0,0,1-3.21.92H126.23A11.33,11.33,0,0,0,114.9,550V560.5a6.73,6.73,0,0,1,4.91-2.14H131.9a6.79,6.79,0,0,1,6.8,6.79v25.69a6.79,6.79,0,0,1-6.8,6.8H119.81a6.73,6.73,0,0,1-4.91-2.14v55.79a11.33,11.33,0,0,0,11.33,11.33h41a11,11,0,0,1,10.7,7.68,60.14,60.14,0,0,0,115.7,0,11,11,0,0,1,10.7-7.68h193a11.11,11.11,0,0,1,11.11,9.4,69.52,69.52,0,0,0,137.76,0,11.1,11.1,0,0,1,11.1-9.4h17.49a11.33,11.33,0,0,0,11.33-11.33V604.44H674.77a8.32,8.32,0,0,1-8.32-8.31V566.67A8.32,8.32,0,0,1,674.77,558.36ZM235.41,680.75a21.91,21.91,0,1,1,21.91-21.91A21.9,21.9,0,0,1,235.41,680.75Zm131.85-147a4.91,4.91,0,0,1-4.91,4.91H237.59a3.73,3.73,0,0,1-1-.24l56.75-108.56h69a4.91,4.91,0,0,1,4.91,4.91Zm125.42-2.27a6.42,6.42,0,0,1-6.42,6.42H397.1a6.41,6.41,0,0,1-6.42-6.42V435.58a6.41,6.41,0,0,1,6.42-6.42h89.16a6.42,6.42,0,0,1,6.42,6.42ZM523,538.71a5.29,5.29,0,0,1-5.29-5.29V435.2a5.29,5.29,0,0,1,5.29-5.29h22.86l52.43,108a4.62,4.62,0,0,1-2.23.77Zm56.45,153.57a21.92,21.92,0,1,1,21.91-21.91A21.9,21.9,0,0,1,579.46,692.28Z"/></svg>