<svg id="Layer_1" data-name="Layer 1" xmlns="http://www.w3.org/2000/svg" viewBox="0 0 800 800"><defs><style>.cls-1{fill:#0000cd;}</style></defs><title>ICON_AF</title><polygon class="cls-1" points="342.31 229.7 395.42 201.78 448.54 229.7 438.39 170.56 481.37 128.67 421.98 120.04 395.42 66.23 368.87 120.04 309.48 128.67 352.45 170.56 342.31 229.7"/><path class="cls-1" d="M635.44,671.39l-54.32-91.53a3.71,3.71,0,0,1,3-5.59l40.25-2.64a3.72,3.72,0,0,0,2.8-5.83l-90-128.73L575.44,440,520,344.56H552L460.2,221.15l1.73,26-65-25.42a3.7,3.7,0,0,0-2.9.08l-67.23,28.81,9.53-57.19-83.18,118.7h22.53L216.72,423l25.13-7.8-64.12,143,38.12-17.33L164.31,666.5a3.71,3.71,0,0,0,5.18,4.69l85.45-45.63a3.71,3.71,0,0,1,5.32,4.29l-13.63,48a3.71,3.71,0,0,0,5.11,4.39l134-60.92a3.68,3.68,0,0,1,3.25.08l110.16,57.51a3.71,3.71,0,0,0,5.41-3.64L499.8,626a3.7,3.7,0,0,1,5.16-3.76l125.82,54.47A3.71,3.71,0,0,0,635.44,671.39Zm-363.7-72.84A17.28,17.28,0,1,1,289,581.28,17.27,17.27,0,0,1,271.74,598.55Zm8.5-107.85a17.28,17.28,0,1,1,17.27-17.28A17.28,17.28,0,0,1,280.24,490.7Zm46.52-108.45A17.28,17.28,0,1,1,344,365,17.28,17.28,0,0,1,326.76,382.25Zm26.32-100.4a17.28,17.28,0,1,1,17.27,17.28A17.27,17.27,0,0,1,353.08,281.85Zm25.07,287.7a17.28,17.28,0,1,1,17.27-17.28A17.28,17.28,0,0,1,378.15,569.55ZM404.9,460.37a17.28,17.28,0,1,1,17.28-17.27A17.27,17.27,0,0,1,404.9,460.37Zm37.48-144a17.28,17.28,0,1,1,17.27,17.28A17.27,17.27,0,0,1,442.38,316.4Zm24.15,83.13a17.28,17.28,0,1,1,17.28,17.27A17.28,17.28,0,0,1,466.53,399.53Zm32.11,158a17.28,17.28,0,1,1,17.27-17.28A17.28,17.28,0,0,1,498.64,557.53Z"/><path class="cls-1" d="M332.85,659.14l0,60.22A12.13,12.13,0,0,0,345,731.49h85.29a12.13,12.13,0,0,0,12.13-12.13l0-60.22L387.6,633.58Z"/></svg>