<svg id="Layer_1" data-name="Layer 1" xmlns="http://www.w3.org/2000/svg" viewBox="0 0 800 800"><defs><style>.cls-1{fill:#0000cd;}</style></defs><title>ICON_AF</title><path class="cls-1" d="M671.57,421.69l-33.06-36.31a12.61,12.61,0,0,0-2.33-2.56L407.51,131.76c-4.45-4.88-13.12-4.88-17.56,0L163.39,381.4a12.33,12.33,0,0,0-6,6.62L126.8,421.7c-5.63,6.21-.43,15.21,8.79,15.21h20.89V717.67A12.54,12.54,0,0,0,169,730.21h459.4A12.54,12.54,0,0,0,641,717.67V436.91H662.8C672,436.91,677.22,427.89,671.57,421.69ZM335.88,715.21a2.72,2.72,0,0,1-2.72,2.72H255.23a2.72,2.72,0,0,1-2.73-2.72V581.16a2.73,2.73,0,0,1,2.73-2.73h77.93a2.72,2.72,0,0,1,2.72,2.73ZM522,652.29a2.42,2.42,0,0,1-2.42,2.42H448.14a2.42,2.42,0,0,1-2.42-2.42V580.85a2.42,2.42,0,0,1,2.42-2.42h71.44a2.42,2.42,0,0,1,2.42,2.42Z"/></svg>