<svg id="Layer_1" data-name="Layer 1" xmlns="http://www.w3.org/2000/svg" viewBox="0 0 800 800"><defs><style>.cls-1{fill:#0000cd;}</style></defs><title>ICON_AF</title><path class="cls-1" d="M653.08,371c-10.92-19.16-17.85-35.66-15.72-60.19,5.92-67.94-25.31-120.48-86.66-149.52-22.91-10.83-38-24.53-51.89-44-50.39-70.25-161.33-69.45-209.52,2.71-14.08,21.08-31.75,31.81-53.21,42.6C176.55,192.6,149,244.39,153,309.38c1.5,23.92-3.64,40.85-15.41,60.09-61.82,101.14-7.12,237.24,112.56,258C275,631.83,299.91,635.91,325,640v71.12a13.85,13.85,0,0,0,13.85,13.84H463.92a13.84,13.84,0,0,0,13.85-13.84V638.52c20.26-3.18,40.41-6.61,60.32-11C660.14,600.37,714.35,478.56,653.08,371ZM473.16,172.14c1.15,70.81-49,64.78-49,64.78C416.93,175.2,473.16,172.14,473.16,172.14ZM411.55,349.43c2.29,62.1-54,60.62-54,60.62C362.09,339.38,411.55,349.43,411.55,349.43ZM193.3,481.34C223.67,427.12,271,457.68,271,457.68,230.3,515.66,193.3,481.34,193.3,481.34Zm113.15-167c-62-4.65-54.23-60.43-54.23-60.43C321.94,266.3,306.45,314.33,306.45,314.33Zm17.2,203.77c70.58-5.7,67.78,44.69,67.78,44.69C330.3,574,323.65,518.1,323.65,518.1Zm153.18-70.84C507.2,393,554.49,423.6,554.49,423.6,513.83,481.57,476.83,447.26,476.83,447.26Zm83.86-126.17c-61.13,11.23-67.78-44.69-67.78-44.69C563.49,270.7,560.69,321.09,560.69,321.09Z"/></svg>