<svg id="Layer_1" data-name="Layer 1" xmlns="http://www.w3.org/2000/svg" viewBox="0 0 800 800"><defs><style>.cls-1{fill:#0000cd;}</style></defs><title>ICON_AF</title><path class="cls-1" d="M663.61,320.74H442.86l73.83-140.26a7.06,7.06,0,0,0-3-9.54l-5.87-3.09a7.06,7.06,0,0,0-9.55,3L419.39,320.74H377.7L292.05,172.39a7.08,7.08,0,0,0-9.66-2.59l-5.75,3.32a7.06,7.06,0,0,0-2.58,9.65l79.65,138H131.64A19.21,19.21,0,0,0,112.43,340V710.08a19.22,19.22,0,0,0,19.21,19.22h532a19.22,19.22,0,0,0,19.21-19.22V340A19.21,19.21,0,0,0,663.61,320.74ZM556.27,625.16a19.21,19.21,0,0,1-19.21,19.21H171.65a19.21,19.21,0,0,1-19.21-19.21V397.65a19.21,19.21,0,0,1,19.21-19.21H537.06a19.21,19.21,0,0,1,19.21,19.21ZM628.87,525a21.83,21.83,0,1,1,21.83-21.83A21.82,21.82,0,0,1,628.87,525Zm0-76.43a21.83,21.83,0,1,1,21.83-21.83A21.83,21.83,0,0,1,628.87,448.59Z"/></svg>