<svg id="Layer_1" data-name="Layer 1" xmlns="http://www.w3.org/2000/svg" viewBox="0 0 800 800"><defs><style>.cls-1{fill:#0000cd;}</style></defs><title>ICON_AF</title><path class="cls-1" d="M635,228.05h-445a46.24,46.24,0,0,0-46.19,46.19V688.49a46.25,46.25,0,0,0,46.19,46.2H635a46.25,46.25,0,0,0,46.2-46.2V274.24A46.24,46.24,0,0,0,635,228.05Zm.49,46.19V458.51H435.33V274ZM389.61,274V458.51H189.48l.46-184.75ZM189.46,688.49V504.22H389.61V688.71ZM635,689l-199.66-.22V504.22H635.48V688.49A.49.49,0,0,1,635,689Z"/></svg>